# Blender 3.6.2
# www.blender.org
mtllib skateboard.mtl
o Cube
v 0.061610 0.005627 -0.544170
v 0.130989 -0.016904 -0.458161
v 0.061610 -0.003432 -0.544170
v 0.130989 -0.039344 -0.458161
v 0.130989 -0.016904 0.442708
v 0.061610 0.005627 0.528718
v 0.061610 -0.003432 0.528718
v 0.130989 -0.039344 0.442708
v -0.060830 0.005627 -0.544170
v -0.130209 -0.016904 -0.458161
v -0.060830 -0.003432 -0.544170
v -0.130209 -0.039344 -0.458161
v -0.060830 0.005627 0.528718
v -0.130209 -0.016904 0.442708
v -0.060830 -0.003432 0.528718
v -0.130209 -0.039344 0.442708
v -0.130523 -0.066784 -0.347387
v 0.131303 -0.066784 -0.347387
v -0.130523 -0.074778 -0.342771
v 0.131303 -0.074778 -0.342771
v -0.130523 -0.074778 -0.333540
v 0.131303 -0.074778 -0.333540
v -0.130523 -0.066784 -0.328924
v 0.131303 -0.066784 -0.328924
v -0.130523 -0.058789 -0.333540
v 0.131303 -0.058789 -0.333540
v -0.130523 -0.058789 -0.342771
v 0.131303 -0.058789 -0.342771
v 0.000390 -0.038941 -0.312493
v 0.015119 -0.036705 -0.320697
v 0.015119 -0.032232 -0.337106
v 0.000390 -0.029995 -0.345311
v -0.014339 -0.032232 -0.337106
v -0.014339 -0.036705 -0.320697
v 0.000390 -0.067286 -0.337848
v 0.117847 -0.070139 -0.358499
v 0.149028 -0.070139 -0.358499
v 0.117847 -0.087345 -0.344720
v 0.149028 -0.087345 -0.344720
v 0.117847 -0.087345 -0.332466
v 0.149028 -0.087345 -0.332466
v 0.117847 -0.070139 -0.318688
v 0.149028 -0.070139 -0.318688
v 0.117847 -0.052933 -0.332466
v 0.149028 -0.052933 -0.332466
v 0.117847 -0.052933 -0.344720
v 0.149028 -0.052933 -0.344720
v 0.126861 -0.070139 -0.367288
v 0.126861 -0.094989 -0.352941
v 0.140013 -0.094989 -0.352941
v 0.140013 -0.070139 -0.367288
v 0.126861 -0.094989 -0.324246
v 0.140013 -0.094989 -0.324246
v 0.126861 -0.070139 -0.309898
v 0.140013 -0.070139 -0.309898
v 0.126861 -0.045289 -0.324246
v 0.140013 -0.045289 -0.324246
v 0.126861 -0.045289 -0.352941
v 0.140013 -0.045289 -0.352941
v -0.146837 -0.070139 -0.358499
v -0.115656 -0.070139 -0.358499
v -0.146837 -0.087345 -0.344720
v -0.115656 -0.087345 -0.344720
v -0.146837 -0.087345 -0.332466
v -0.115656 -0.087345 -0.332466
v -0.146837 -0.070139 -0.318688
v -0.115656 -0.070139 -0.318688
v -0.146837 -0.052933 -0.332466
v -0.115656 -0.052933 -0.332466
v -0.146837 -0.052933 -0.344720
v -0.115656 -0.052933 -0.344720
v -0.137823 -0.070139 -0.367288
v -0.137823 -0.094989 -0.352941
v -0.124670 -0.094989 -0.352941
v -0.124670 -0.070139 -0.367288
v -0.137823 -0.094989 -0.324246
v -0.124670 -0.094989 -0.324246
v -0.137823 -0.070139 -0.309898
v -0.124670 -0.070139 -0.309898
v -0.137823 -0.045289 -0.324246
v -0.124670 -0.045289 -0.324246
v -0.137823 -0.045289 -0.352941
v -0.124670 -0.045289 -0.352941
v 0.132314 -0.066784 0.311917
v -0.129513 -0.066784 0.311917
v 0.132314 -0.074778 0.307302
v -0.129513 -0.074778 0.307302
v 0.132314 -0.074778 0.298070
v -0.129513 -0.074778 0.298070
v 0.132314 -0.066784 0.293455
v -0.129513 -0.066784 0.293455
v 0.132314 -0.058789 0.298070
v -0.129513 -0.058789 0.298070
v 0.132314 -0.058789 0.307302
v -0.129513 -0.058789 0.307302
v 0.001401 -0.038941 0.277024
v -0.013328 -0.036705 0.285228
v -0.013328 -0.032232 0.301637
v 0.001401 -0.029995 0.309841
v 0.016130 -0.032232 0.301637
v 0.016130 -0.036705 0.285228
v 0.001401 -0.067286 0.302378
v -0.116056 -0.070139 0.323029
v -0.147237 -0.070139 0.323029
v -0.116056 -0.087345 0.309251
v -0.147237 -0.087345 0.309251
v -0.116056 -0.087345 0.296997
v -0.147237 -0.087345 0.296997
v -0.116056 -0.070139 0.283218
v -0.147237 -0.070139 0.283218
v -0.116056 -0.052933 0.296997
v -0.147237 -0.052933 0.296997
v -0.116056 -0.052933 0.309251
v -0.147237 -0.052933 0.309251
v -0.125070 -0.070139 0.331818
v -0.125070 -0.094989 0.317471
v -0.138223 -0.094989 0.317471
v -0.138223 -0.070139 0.331818
v -0.125070 -0.094989 0.288776
v -0.138223 -0.094989 0.288776
v -0.125070 -0.070139 0.274429
v -0.138223 -0.070139 0.274429
v -0.125070 -0.045289 0.288776
v -0.138223 -0.045289 0.288776
v -0.125070 -0.045289 0.317471
v -0.138223 -0.045289 0.317471
v 0.148627 -0.070139 0.323029
v 0.117447 -0.070139 0.323029
v 0.148627 -0.087345 0.309251
v 0.117447 -0.087345 0.309251
v 0.148627 -0.087345 0.296997
v 0.117447 -0.087345 0.296997
v 0.148627 -0.070139 0.283218
v 0.117447 -0.070139 0.283218
v 0.148627 -0.052933 0.296997
v 0.117447 -0.052933 0.296997
v 0.148627 -0.052933 0.309251
v 0.117447 -0.052933 0.309251
v 0.139613 -0.070139 0.331818
v 0.139613 -0.094989 0.317471
v 0.126461 -0.094989 0.317471
v 0.126461 -0.070139 0.331818
v 0.139613 -0.094989 0.288776
v 0.126461 -0.094989 0.288776
v 0.139613 -0.070139 0.274429
v 0.126461 -0.070139 0.274429
v 0.139613 -0.045289 0.288776
v 0.126461 -0.045289 0.288776
v 0.139613 -0.045289 0.317471
v 0.126461 -0.045289 0.317471
vn -0.0000 -1.0000 -0.0000
vn -1.0000 -0.0000 -0.0000
vn -0.0000 -0.0000 1.0000
vn -0.0000 1.0000 -0.0000
vn 1.0000 -0.0000 -0.0000
vn -0.0000 -0.9228 -0.3853
vn 0.7783 -0.0000 -0.6278
vn -0.7783 -0.0000 0.6278
vn 0.7783 -0.0000 0.6278
vn -0.7783 -0.0000 -0.6278
vn -0.0000 0.9674 -0.2534
vn -0.0000 -0.9228 0.3853
vn -0.0000 0.9674 0.2534
vn -0.0000 -0.0000 -1.0000
vn -0.0000 -0.5000 -0.8660
vn -0.0000 -0.5000 0.8660
vn -0.0000 0.5000 0.8660
vn -0.0000 0.5000 -0.8660
vn 0.4588 -0.5924 0.6622
vn 0.9177 -0.3834 -0.1045
vn 0.4588 -0.1744 -0.8712
vn -0.4588 -0.1744 -0.8712
vn -0.0000 0.9648 0.2630
vn -0.9177 -0.3834 -0.1045
vn -0.4588 -0.5924 0.6622
vn -0.7718 -0.3179 -0.5507
vn 0.6056 -0.4974 -0.6211
vn -0.6468 -0.7627 -0.0000
vn 0.6468 -0.7627 -0.0000
vn -0.6056 -0.4974 0.6211
vn 0.7718 -0.3179 0.5507
vn -0.7718 0.3179 0.5507
vn 0.6056 0.4974 0.6211
vn -0.6468 0.7627 -0.0000
vn 0.6468 0.7627 -0.0000
vn -0.6056 0.4974 -0.6211
vn 0.7718 0.3179 -0.5507
vn -0.4588 -0.5924 -0.6622
vn -0.9177 -0.3834 0.1045
vn -0.4588 -0.1744 0.8712
vn 0.4588 -0.1744 0.8712
vn -0.0000 0.9648 -0.2630
vn 0.9177 -0.3834 0.1045
vn 0.4588 -0.5924 -0.6622
vn -0.6056 -0.4974 -0.6211
vn 0.7718 -0.3179 -0.5507
vn -0.7718 -0.3179 0.5507
vn 0.6056 -0.4974 0.6211
vn -0.6056 0.4974 0.6211
vn 0.7718 0.3179 0.5507
vn -0.7718 0.3179 -0.5507
vn 0.6056 0.4974 -0.6211
vt 0.742864 0.476333
vt 0.534898 0.650955
vt 0.534898 0.476333
vt 0.118217 0.430274
vt 0.062381 0.477158
vt 0.062381 0.430274
vt 0.113741 0.597784
vt 0.091200 0.644668
vt 0.091200 0.597784
vt 0.122841 0.867784
vt 0.185412 0.942303
vt 0.122841 0.942303
vt 0.118217 0.541947
vt 0.062381 0.588832
vt 0.062381 0.541947
vt 0.742864 0.459661
vt 0.850202 0.268367
vt 0.850202 0.442989
vt 0.091200 0.532995
vt 0.113741 0.532995
vt 0.118217 0.649144
vt 0.062381 0.649144
vt 0.118217 0.588832
vt 0.091200 0.486111
vt 0.118217 0.477158
vt 0.113741 0.486111
vt 0.265905 0.942303
vt 0.197360 0.948277
vt 0.191386 0.942303
vt 0.742864 0.667627
vt 0.850201 0.858921
vt 0.742864 0.875593
vt 0.042348 0.942303
vt 0.110893 0.948277
vt 0.048322 0.948277
vt 0.621194 0.229512
vt 0.593331 0.145923
vt 0.621194 0.145923
vt 0.593331 0.229512
vt 0.565468 0.145923
vt 0.565468 0.229512
vt 0.537605 0.145923
vt 0.537605 0.229512
vt 0.509742 0.145923
vt 0.495811 0.144251
vt 0.461064 0.084067
vt 0.530558 0.084067
vt 0.509742 0.229512
vt 0.481879 0.145923
vt 0.481879 0.229512
vt 0.454016 0.145923
vt 0.614147 0.124190
vt 0.579400 0.064006
vt 0.544653 0.124190
vt 0.495811 0.104129
vt 0.530558 0.124190
vt 0.495811 0.064006
vt 0.461064 0.124190
vt 0.248810 0.233204
vt 0.221703 0.151884
vt 0.248810 0.151884
vt 0.221703 0.233204
vt 0.194596 0.151884
vt 0.194596 0.233204
vt 0.167489 0.151884
vt 0.140382 0.233204
vt 0.140382 0.151884
vt 0.126829 0.138301
vt 0.094365 0.102889
vt 0.159292 0.102889
vt 0.113275 0.151884
vt 0.113275 0.233204
vt 0.086169 0.151884
vt 0.240613 0.119558
vt 0.208149 0.084146
vt 0.175686 0.119558
vt 0.208149 0.150257
vt 0.241954 0.130740
vt 0.159292 0.119558
vt 0.126829 0.150257
vt 0.241954 0.091706
vt 0.240613 0.102889
vt 0.160633 0.130740
vt 0.208149 0.072190
vt 0.126829 0.072190
vt 0.160633 0.091706
vt 0.175686 0.102889
vt 0.174345 0.091706
vt 0.126829 0.084146
vt 0.174345 0.130740
vt 0.094365 0.119558
vt 0.093025 0.091706
vt 0.208149 0.138301
vt 0.093025 0.130740
vt 0.742864 0.650955
vt 0.113741 0.644668
vt 0.185412 0.867784
vt 0.742864 0.251695
vt 0.259931 0.948277
vt 0.850202 0.684299
vt 0.116867 0.942303
vt 0.454016 0.229512
vt 0.579400 0.144251
vt 0.614147 0.084067
vt 0.544653 0.084067
vt 0.167489 0.233204
vt 0.086169 0.233204
s 0
usemtl Material
f 4/1/1 16/2/1 12/3/1
f 14/4/2 12/5/2 16/6/2
f 6/7/3 15/8/3 7/9/3
f 10/10/4 5/11/4 2/12/4
f 2/13/5 8/14/5 4/15/5
f 4/16/6 11/17/6 3/18/6
f 2/13/7 3/19/7 1/20/7
f 15/8/8 14/21/8 16/22/8
f 7/9/9 5/23/9 6/7/9
f 11/24/10 10/25/10 9/26/10
f 14/27/11 6/28/11 5/29/11
f 8/30/12 15/31/12 16/32/12
f 10/33/13 1/34/13 9/35/13
f 9/26/14 3/19/14 11/24/14
f 18/36/15 19/37/15 17/38/15
f 20/39/1 21/40/1 19/37/1
f 22/41/16 23/42/16 21/40/16
f 24/43/17 25/44/17 23/42/17
f 18/45/5 26/46/5 22/47/5
f 26/48/4 27/49/4 25/44/4
f 28/50/18 17/51/18 27/49/18
f 19/52/2 23/53/2 27/54/2
f 29/45/19 35/55/19 30/56/19
f 30/56/20 35/55/20 31/47/20
f 31/47/21 35/55/21 32/57/21
f 32/57/22 35/55/22 33/46/22
f 30/52/23 32/53/23 34/54/23
f 33/46/24 35/55/24 34/58/24
f 34/58/25 35/55/25 29/45/25
f 51/59/15 49/60/15 48/61/15
f 50/62/1 52/63/1 49/60/1
f 53/64/16 54/65/16 52/63/16
f 54/65/17 57/66/17 56/67/17
f 37/68/5 45/69/5 41/70/5
f 57/66/4 58/71/4 56/67/4
f 59/72/18 48/73/18 58/71/18
f 38/74/2 42/75/2 46/76/2
f 38/74/26 48/77/26 49/78/26
f 39/79/27 51/80/27 37/68/27
f 38/74/28 52/81/28 40/82/28
f 41/70/29 50/83/29 39/79/29
f 40/82/30 54/84/30 42/75/30
f 41/70/31 55/85/31 53/86/31
f 44/87/32 54/84/32 56/88/32
f 45/69/33 55/85/33 43/89/33
f 44/87/34 58/90/34 46/76/34
f 47/91/35 57/92/35 45/69/35
f 46/76/36 48/77/36 36/93/36
f 47/91/37 51/80/37 59/94/37
f 75/59/15 73/60/15 72/61/15
f 74/62/1 76/63/1 73/60/1
f 77/64/16 78/65/16 76/63/16
f 78/65/17 81/66/17 80/67/17
f 61/68/5 69/69/5 65/70/5
f 81/66/4 82/71/4 80/67/4
f 83/72/18 72/73/18 82/71/18
f 62/74/2 66/75/2 70/76/2
f 62/74/26 72/77/26 73/78/26
f 63/79/27 75/80/27 61/68/27
f 62/74/28 76/81/28 64/82/28
f 65/70/29 74/83/29 63/79/29
f 64/82/30 78/84/30 66/75/30
f 65/70/31 79/85/31 77/86/31
f 68/87/32 78/84/32 80/88/32
f 69/69/33 79/85/33 67/89/33
f 68/87/34 82/90/34 70/76/34
f 71/91/35 81/92/35 69/69/35
f 70/76/36 72/77/36 60/93/36
f 71/91/37 75/80/37 83/94/37
f 85/36/16 86/37/16 84/38/16
f 87/39/1 88/40/1 86/37/1
f 89/41/15 90/42/15 88/40/15
f 91/43/18 92/44/18 90/42/18
f 85/45/2 93/46/2 89/47/2
f 93/48/4 94/49/4 92/44/4
f 95/50/17 84/51/17 94/49/17
f 86/52/5 90/53/5 94/54/5
f 96/45/38 102/55/38 97/56/38
f 97/56/39 102/55/39 98/47/39
f 98/47/40 102/55/40 99/57/40
f 99/57/41 102/55/41 100/46/41
f 97/52/42 99/53/42 101/54/42
f 100/46/43 102/55/43 101/58/43
f 101/58/44 102/55/44 96/45/44
f 118/59/16 116/60/16 115/61/16
f 117/62/1 119/63/1 116/60/1
f 120/64/15 121/65/15 119/63/15
f 121/65/18 124/66/18 123/67/18
f 104/68/2 112/69/2 108/70/2
f 124/66/4 125/71/4 123/67/4
f 126/72/17 115/73/17 125/71/17
f 105/74/5 109/75/5 113/76/5
f 105/74/31 115/77/31 116/78/31
f 106/79/30 118/80/30 104/68/30
f 105/74/29 119/81/29 107/82/29
f 108/70/28 117/83/28 106/79/28
f 107/82/27 121/84/27 109/75/27
f 108/70/26 122/85/26 120/86/26
f 111/87/37 121/84/37 123/88/37
f 112/69/36 122/85/36 110/89/36
f 111/87/35 125/90/35 113/76/35
f 114/91/34 124/92/34 112/69/34
f 113/76/33 115/77/33 103/93/33
f 114/91/32 118/80/32 126/94/32
f 142/59/16 140/60/16 139/61/16
f 141/62/1 143/63/1 140/60/1
f 144/64/15 145/65/15 143/63/15
f 145/65/18 148/66/18 147/67/18
f 128/68/2 136/69/2 132/70/2
f 148/66/4 149/71/4 147/67/4
f 150/72/17 139/73/17 149/71/17
f 129/74/5 133/75/5 137/76/5
f 129/74/31 139/77/31 140/78/31
f 130/79/30 142/80/30 128/68/30
f 129/74/29 143/81/29 131/82/29
f 132/70/28 141/83/28 130/79/28
f 131/82/27 145/84/27 133/75/27
f 132/70/26 146/85/26 144/86/26
f 135/87/37 145/84/37 147/88/37
f 136/69/36 146/85/36 134/89/36
f 135/87/35 149/90/35 137/76/35
f 138/91/34 148/92/34 136/69/34
f 137/76/33 139/77/33 127/93/33
f 138/91/32 142/80/32 150/94/32
f 4/1/1 8/95/1 16/2/1
f 14/4/2 10/25/2 12/5/2
f 6/7/3 13/96/3 15/8/3
f 10/10/4 14/97/4 5/11/4
f 2/13/5 5/23/5 8/14/5
f 4/16/6 12/98/6 11/17/6
f 2/13/7 4/15/7 3/19/7
f 15/8/8 13/96/8 14/21/8
f 7/9/9 8/14/9 5/23/9
f 11/24/10 12/5/10 10/25/10
f 14/27/11 13/99/11 6/28/11
f 8/30/12 7/100/12 15/31/12
f 10/33/13 2/101/13 1/34/13
f 9/26/14 1/20/14 3/19/14
f 18/36/15 20/39/15 19/37/15
f 20/39/1 22/41/1 21/40/1
f 22/41/16 24/43/16 23/42/16
f 24/43/17 26/48/17 25/44/17
f 22/47/5 20/56/5 18/45/5
f 18/45/5 28/58/5 26/46/5
f 26/46/5 24/57/5 22/47/5
f 26/48/4 28/50/4 27/49/4
f 28/50/18 18/102/18 17/51/18
f 27/54/2 17/103/2 19/52/2
f 19/52/2 21/104/2 23/53/2
f 23/53/2 25/105/2 27/54/2
f 34/54/23 29/103/23 30/52/23
f 30/52/23 31/104/23 32/53/23
f 32/53/23 33/105/23 34/54/23
f 51/59/15 50/62/15 49/60/15
f 50/62/1 53/64/1 52/63/1
f 53/64/16 55/106/16 54/65/16
f 54/65/17 55/106/17 57/66/17
f 41/70/5 39/79/5 37/68/5
f 37/68/5 47/91/5 45/69/5
f 45/69/5 43/89/5 41/70/5
f 57/66/4 59/72/4 58/71/4
f 59/72/18 51/107/18 48/73/18
f 46/76/2 36/93/2 38/74/2
f 38/74/2 40/82/2 42/75/2
f 42/75/2 44/87/2 46/76/2
f 38/74/45 36/93/45 48/77/45
f 39/79/46 50/83/46 51/80/46
f 38/74/28 49/78/28 52/81/28
f 41/70/29 53/86/29 50/83/29
f 40/82/47 52/81/47 54/84/47
f 41/70/48 43/89/48 55/85/48
f 44/87/49 42/75/49 54/84/49
f 45/69/50 57/92/50 55/85/50
f 44/87/34 56/88/34 58/90/34
f 47/91/35 59/94/35 57/92/35
f 46/76/51 58/90/51 48/77/51
f 47/91/52 37/68/52 51/80/52
f 75/59/15 74/62/15 73/60/15
f 74/62/1 77/64/1 76/63/1
f 77/64/16 79/106/16 78/65/16
f 78/65/17 79/106/17 81/66/17
f 65/70/5 63/79/5 61/68/5
f 61/68/5 71/91/5 69/69/5
f 69/69/5 67/89/5 65/70/5
f 81/66/4 83/72/4 82/71/4
f 83/72/18 75/107/18 72/73/18
f 70/76/2 60/93/2 62/74/2
f 62/74/2 64/82/2 66/75/2
f 66/75/2 68/87/2 70/76/2
f 62/74/45 60/93/45 72/77/45
f 63/79/46 74/83/46 75/80/46
f 62/74/28 73/78/28 76/81/28
f 65/70/29 77/86/29 74/83/29
f 64/82/47 76/81/47 78/84/47
f 65/70/48 67/89/48 79/85/48
f 68/87/49 66/75/49 78/84/49
f 69/69/50 81/92/50 79/85/50
f 68/87/34 80/88/34 82/90/34
f 71/91/35 83/94/35 81/92/35
f 70/76/51 82/90/51 72/77/51
f 71/91/52 61/68/52 75/80/52
f 85/36/16 87/39/16 86/37/16
f 87/39/1 89/41/1 88/40/1
f 89/41/15 91/43/15 90/42/15
f 91/43/18 93/48/18 92/44/18
f 89/47/2 87/56/2 85/45/2
f 85/45/2 95/58/2 93/46/2
f 93/46/2 91/57/2 89/47/2
f 93/48/4 95/50/4 94/49/4
f 95/50/17 85/102/17 84/51/17
f 94/54/5 84/103/5 86/52/5
f 86/52/5 88/104/5 90/53/5
f 90/53/5 92/105/5 94/54/5
f 101/54/42 96/103/42 97/52/42
f 97/52/42 98/104/42 99/53/42
f 99/53/42 100/105/42 101/54/42
f 118/59/16 117/62/16 116/60/16
f 117/62/1 120/64/1 119/63/1
f 120/64/15 122/106/15 121/65/15
f 121/65/18 122/106/18 124/66/18
f 108/70/2 106/79/2 104/68/2
f 104/68/2 114/91/2 112/69/2
f 112/69/2 110/89/2 108/70/2
f 124/66/4 126/72/4 125/71/4
f 126/72/17 118/107/17 115/73/17
f 113/76/5 103/93/5 105/74/5
f 105/74/5 107/82/5 109/75/5
f 109/75/5 111/87/5 113/76/5
f 105/74/48 103/93/48 115/77/48
f 106/79/47 117/83/47 118/80/47
f 105/74/29 116/78/29 119/81/29
f 108/70/28 120/86/28 117/83/28
f 107/82/46 119/81/46 121/84/46
f 108/70/45 110/89/45 122/85/45
f 111/87/52 109/75/52 121/84/52
f 112/69/51 124/92/51 122/85/51
f 111/87/35 123/88/35 125/90/35
f 114/91/34 126/94/34 124/92/34
f 113/76/50 125/90/50 115/77/50
f 114/91/49 104/68/49 118/80/49
f 142/59/16 141/62/16 140/60/16
f 141/62/1 144/64/1 143/63/1
f 144/64/15 146/106/15 145/65/15
f 145/65/18 146/106/18 148/66/18
f 132/70/2 130/79/2 128/68/2
f 128/68/2 138/91/2 136/69/2
f 136/69/2 134/89/2 132/70/2
f 148/66/4 150/72/4 149/71/4
f 150/72/17 142/107/17 139/73/17
f 137/76/5 127/93/5 129/74/5
f 129/74/5 131/82/5 133/75/5
f 133/75/5 135/87/5 137/76/5
f 129/74/48 127/93/48 139/77/48
f 130/79/47 141/83/47 142/80/47
f 129/74/29 140/78/29 143/81/29
f 132/70/28 144/86/28 141/83/28
f 131/82/46 143/81/46 145/84/46
f 132/70/45 134/89/45 146/85/45
f 135/87/52 133/75/52 145/84/52
f 136/69/51 148/92/51 146/85/51
f 135/87/35 147/88/35 149/90/35
f 138/91/34 150/94/34 148/92/34
f 137/76/50 149/90/50 139/77/50
f 138/91/49 128/68/49 142/80/49
